<?xml version="1.0" standalone="no"?><!DOCTYPE svg PUBLIC "-//W3C//DTD SVG 1.1//EN" "http://www.w3.org/Graphics/SVG/1.1/DTD/svg11.dtd"><svg t="1699595573213" class="icon" viewBox="0 0 1024 1024" version="1.1" xmlns="http://www.w3.org/2000/svg" p-id="4128" xmlns:xlink="http://www.w3.org/1999/xlink" width="26" height="26"><path d="M812.010667 170.666667a101.333333 101.333333 0 0 1 101.226666 96.704l0.106667 4.629333v363.392a21.333333 21.333333 0 0 1-42.538667 2.496l-0.149333-2.496V272a58.666667 58.666667 0 0 0-55.082667-58.56L812.010667 213.333333H211.968a58.666667 58.666667 0 0 0-58.538667 55.082667l-0.106666 3.584v480a58.666667 58.666667 0 0 0 55.082666 58.56l3.562667 0.106667h483.093333a21.333333 21.333333 0 0 1 2.496 42.517333l-2.496 0.149333H212.010667a101.333333 101.333333 0 0 1-101.248-96.704l-0.085334-4.629333v-480A101.333333 101.333333 0 0 1 207.36 170.773333L212.010667 170.666667h600z" fill="#2D3139" p-id="4129"></path><path d="M896 746.666667a21.333333 21.333333 0 0 1 0 42.666666h-128a21.333333 21.333333 0 0 1 0-42.666666h128z" fill="#2D3139" p-id="4130"></path><path d="M853.333333 832a21.333333 21.333333 0 0 1-42.666666 0v-128a21.333333 21.333333 0 0 1 42.666666 0v128z" fill="#2D3139" p-id="4131"></path><path d="M436.48 548.096v-30.208h-64v-19.968H339.2v19.968h-64.256v30.208h161.536z m-178.176 182.784v-168.192c8.874667-19.456 15.189333-40.618667 18.944-63.488h-33.536c-7.850667 33.792-21.674667 62.037333-41.472 84.736v52.736a201.813333 201.813333 0 0 0 22.784-22.272v116.48h33.28z m167.936-139.776v-27.136h-141.056v27.136h141.056z m0 43.008v-27.136h-141.056v27.136h141.056z m4.352 93.952v-78.08h-149.76v78.08h149.76z m-33.024-26.624h-83.712v-24.832h83.712v24.832z" fill="#F1414B" p-id="4132"></path><path d="M576 490.666667a21.333333 21.333333 0 1 1 0 42.666666 21.333333 21.333333 0 0 1 0-42.666666zM661.333333 490.666667a21.333333 21.333333 0 1 1 0 42.666666 21.333333 21.333333 0 0 1 0-42.666666zM746.666667 490.666667a21.333333 21.333333 0 1 1 0 42.666666 21.333333 21.333333 0 0 1 0-42.666666z" fill="#2D3139" p-id="4133"></path><path d="M149.333333 384h746.666667v42.666667H149.333333z" fill="#2D3139" p-id="4134"></path></svg>