<?xml version="1.0" standalone="no"?><!DOCTYPE svg PUBLIC "-//W3C//DTD SVG 1.1//EN" "http://www.w3.org/Graphics/SVG/1.1/DTD/svg11.dtd"><svg t="1699595579288" class="icon" viewBox="0 0 1024 1024" version="1.1" xmlns="http://www.w3.org/2000/svg" p-id="4274" xmlns:xlink="http://www.w3.org/1999/xlink" width="26" height="26"><path d="M874.069333 660.224a384.213333 384.213333 0 0 1-306.048 252.842667c-9.6 15.872-26.794667 25.557333-45.354666 25.6h-42.666667a53.333333 53.333333 0 0 1 0-106.666667h42.666667c14.933333 0 29.184 6.314667 39.210666 17.365333a320.341333 320.341333 0 0 0 244.096-189.738666 74.666667 74.666667 0 0 1-59.306666-73.045334v-64c0-41.258667 33.450667-74.666667 74.666666-74.666666h9.6a319.658667 319.658667 0 0 0-637.866666 0h9.6c41.216 0 74.666667 33.408 74.666666 74.666666v64a74.666667 74.666667 0 0 1-74.666666 74.666667h-42.666667A74.666667 74.666667 0 0 1 85.333333 586.581333v-64c0.042667-29.098667 16.981333-55.466667 43.392-67.626666a383.573333 383.573333 0 0 1 766.549334 0c26.410667 12.117333 43.349333 38.528 43.392 67.626666v64a74.410667 74.410667 0 0 1-64.597334 73.642667zM149.333333 543.914667v21.333333a32 32 0 1 0 64 0v-21.333333a32 32 0 1 0-64 0z m725.333334 0a32 32 0 1 0-64 0v21.333333a32 32 0 1 0 64 0v-21.333333z" fill="#1B1B1B" p-id="4275"></path><path d="M512 725.333333c45.781333-0.170667 89.344-23.765333 119.765333-64.853333a42.197333 42.197333 0 0 0 8.192-27.306667 40.704 40.704 0 0 0-10.538666-26.112c-13.184-13.994667-33.28-12.757333-45.226667 2.816-18.090667 25.216-44.458667 39.722667-72.192 39.722667-27.733333 0-54.101333-14.506667-72.234667-39.722667-11.904-15.573333-32-16.810667-45.184-2.816a40.704 40.704 0 0 0-10.538666 26.112 42.154667 42.154667 0 0 0 8.192 27.306667c30.421333 41.088 73.984 64.682667 119.765333 64.853333z" fill="#FF9C00" p-id="4276"></path></svg>