<?xml version="1.0" standalone="no"?><!DOCTYPE svg PUBLIC "-//W3C//DTD SVG 1.1//EN" "http://www.w3.org/Graphics/SVG/1.1/DTD/svg11.dtd"><svg t="1699595544031" class="icon" viewBox="0 0 1024 1024" version="1.1" xmlns="http://www.w3.org/2000/svg" p-id="3586" xmlns:xlink="http://www.w3.org/1999/xlink" width="26" height="26"><path d="M320.455111 568.888889c-2.616889 7.964444-3.982222 16.497778-3.982222 25.258667l0.398222 8.647111c0.568889 5.688889 1.706667 11.093333 3.299556 16.270222l1.592889 4.209778-26.965334 95.800889a81.066667 81.066667 0 0 0 20.650667 79.473777l33.735111 34.133334a68.892444 68.892444 0 0 0 99.441778-1.137778l32.768-32.995556 5.802666-6.542222c16.270222-20.309333 22.016-47.217778 14.791112-72.988444l-27.022223-95.744 1.592889-4.209778A83.057778 83.057778 0 0 0 476.330667 568.888889L512 568.888889a227.555556 227.555556 0 0 1 227.555556 227.555555v140.060445c0 16.896-12.743111 30.606222-28.444445 30.606222h-625.777778c-15.701333 0-28.444444-13.710222-28.444444-30.606222V796.444444a227.555556 227.555556 0 0 1 216.177778-227.271111L284.444444 568.888889h36.010667z m424.220445-395.377778A199.111111 199.111111 0 0 1 910.222222 369.777778a203.434667 203.434667 0 0 1-76.458666 158.378666A141.937778 141.937778 0 0 1 910.222222 654.222222v227.555556a28.444444 28.444444 0 1 1-56.888889 0v-227.555556a85.333333 85.333333 0 0 0-85.333333-85.333333l-23.665778-0.398222a28.330667 28.330667 0 0 1-32.881778-23.608889 28.046222 28.046222 0 0 1 10.24-26.567111 28.444444 28.444444 0 0 1 8.021334-4.551111l3.413333-1.024 1.706667-0.341334C802.133333 500.963556 853.333333 439.864889 853.333333 369.777778a142.222222 142.222222 0 0 0-118.215111-140.231111 28.444444 28.444444 0 1 1 9.557334-56.035556zM398.392889 568.888889c13.767111 0 25.031111 11.377778 25.031111 25.258667a24.632889 24.632889 0 0 1-10.012444 20.252444l33.792 120.092444a24.234667 24.234667 0 0 1-6.257778 24.007112l-33.792 34.133333a12.003556 12.003556 0 0 1-17.521778 0l-33.792-34.133333c-6.257778-6.257778-8.760889-15.132444-6.257778-24.007112l33.792-120.092444a24.689778 24.689778 0 0 1-10.012444-20.252444c0-13.880889 11.264-25.258667 25.031111-25.258667zM398.222222 56.888889a227.555556 227.555556 0 1 1 0 455.111111 227.555556 227.555556 0 0 1 0-455.111111z" fill="#ffffff" p-id="3587"></path></svg>